# xmcd CD database file
#
# Track frame offsets:
#	187
#	22175
#	45147
#	60837
#	77622
#	96395
#	138705
#	183315
#
# Disc length: 2625 seconds
#
# Revision: 0
# Processed by: cddbd v1.5PL3 Copyright (c) Steve Scherf et al.
# Submitted via: CDex 1.51
#
DISCID=5f0a3f08
DTITLE=Evgeni Mravinsky:Leningrad Philharmonic Symphony Orchestra - Evgeni Mravinsky
DYEAR=1965
DGENRE=クラシック (一般)
TTITLE0=Overture to The Opera "Ruslan and Lyudmila
TTITLE1=Dawn on The Moscow-River
TTITLE2=Baba-Yaga op.56
TTITLE3=Fragment No.10
TTITLE4=Overture to The Opera "The Marriage of Figaro"
TTITLE5=The Swan of Tuonela Op.22-2
TTITLE6=L'apres-Midi D'un Faune
TTITLE7=prelude to Act III of The Opera "Lohengrin"
EXTD=YEAR: 1965
EXTT0=
EXTT1=
EXTT2=
EXTT3=
EXTT4=
EXTT5=
EXTT6=
EXTT7=
PLAYORDER=
